<?xml version="1.0" encoding="UTF-8"?>
<svg id="Layer_1" data-name="Layer 1" xmlns="http://www.w3.org/2000/svg" viewBox="0 0 256 256">
  <defs>
    <style>
      .cls-1 {
        fill: #fff;
      }
    </style>
  </defs>
  <path class="cls-1" d="M208.6993,84.6807h-15.6072v-19.5474C193.0921,29.2841,163.8383,0,127.9066,0,92.0024,0,62.7733,29.2841,62.7733,65.1333v19.5474h-15.6593c-12.1749,0-22.1752,10.003-22.1752,22.123v126.8317c0,12.3891,10.0002,22.3646,22.1752,22.3646h161.5854c12.3342,0,22.3619-9.9755,22.3619-22.3646v-126.8317c0-12.12-10.0277-22.123-22.3619-22.123ZM92.2166,65.1333c0-19.682,15.9806-35.6626,35.69-35.6626s35.7422,15.9806,35.7422,35.6626v19.5474h-71.4322v-19.5474ZM139.9717,197.3303v32.417c0,1.3949-1.2054,2.3339-2.5481,2.3339h-15.4973c-1.1807,0-2.3586-.9391-2.3586-2.3339v-32.417c-10.6208-4.1297-18.2624-14.3194-18.2624-26.4943,0-15.6868,12.7378-28.4493,28.4521-28.4493s28.4768,12.7625,28.4768,28.4493c0,12.1749-7.669,22.3646-18.2624,26.4943Z"/>
</svg>