<?xml version="1.0" encoding="UTF-8"?>
<svg id="Layer_1" data-name="Layer 1" xmlns="http://www.w3.org/2000/svg" viewBox="0 0 256 256">
  <defs>
    <style>
      .cls-1 {
        fill: #fff;
      }
    </style>
  </defs>
  <path class="cls-1" d="M124.1784,130.0533L30.9148,58.1389c-4.4601-3.4391-2.0281-10.5758,3.6039-10.5758h186.8583c5.6371,0,8.0659,7.1474,3.5959,10.582l-93.5946,71.9145c-2.1234,1.6316-5.0792,1.629-7.1999-.0062Z"/>
  <path class="cls-1" d="M83.6567,130.4087L9.631,190.7495c-3.8554,3.1427-9.631.3993-9.631-4.5747v-117.4336c0-4.9002,5.6262-7.6661,9.5064-4.6735l74.0258,57.0928c3.0115,2.3226,3.0724,6.8453.1245,9.2482Z"/>
  <path class="cls-1" d="M107.5848,139.664l16.5942,12.7798c2.1206,1.6332,5.0747,1.6348,7.1972.004l17.7917-13.6708c2.1862-1.6799,5.2443-1.6223,7.3657.1387l71.1695,59.0781c4.2517,3.5294,1.756,10.4432-3.7697,10.4432H32.6254c-5.5513,0-8.0321-6.9673-3.7301-10.4758l71.3582-58.195c2.1237-1.7319,5.1601-1.7743,7.3313-.1022Z"/>
  <path class="cls-1" d="M173.2197,120.3004l73.2838-56.2726c3.882-2.9808,9.4965-.2133,9.4965,4.6811v117.1351c0,4.9993-5.8268,7.7344-9.6727,4.5403l-73.2838-60.8625c-2.9125-2.4189-2.8266-6.9157.1763-9.2215Z"/>
</svg>