<?xml version="1.0" encoding="UTF-8"?>
<svg id="_Слой_1" data-name="Слой 1" xmlns="http://www.w3.org/2000/svg" viewBox="0 0 981.6255 235">
  <defs>
    <style>
      .cls-1 {
        fill: #fff;
      }
    </style>
  </defs>
  <path class="cls-1" d="M13.9399,12.98h27.7202V1.54H.8501v55.6602h13.0898V12.98ZM62.4492,49.5h.4399c.7324,1.1001,1.9062,2.3652,3.52,3.7954,1.6123,1.4297,3.666,2.6777,6.1602,3.7397,2.4922,1.062,5.3521,1.5952,8.5801,1.5952,4.7661,0,9.147-1.229,13.145-3.6851,3.9961-2.4561,7.1499-5.9214,9.46-10.395,2.3101-4.4722,3.4648-9.5322,3.4648-15.1802,0-5.7197-1.1548-10.7969-3.4648-15.2349-2.3101-4.436-5.4639-7.9014-9.46-10.395-3.998-2.4922-8.3789-3.7402-13.145-3.7402-3.228,0-6.0879.5332-8.5801,1.5952-2.4941,1.064-4.5479,2.3291-6.1602,3.7949-1.6138,1.4678-2.7876,2.75-3.52,3.8501h-.4399V1.54h-13.0898v76.5601h13.0898v-28.6001ZM64.4844,19.9102c1.356-2.7119,3.2451-4.8022,5.665-6.27,2.4199-1.4658,5.1318-2.1997,8.1396-2.1997,2.8604,0,5.4814.7339,7.8652,2.1997,2.3823,1.4678,4.252,3.5581,5.6099,6.27,1.3564,2.7139,2.0352,5.8677,2.0352,9.46s-.6787,6.729-2.0352,9.4053c-1.3579,2.6777-3.2275,4.7485-5.6099,6.2148-2.3838,1.4678-5.0049,2.2002-7.8652,2.2002-3.0078,0-5.7197-.7324-8.1396-2.2002-2.4199-1.4663-4.3091-3.5371-5.665-6.2148-1.3579-2.6763-2.0352-5.8115-2.0352-9.4053s.6772-6.7461,2.0352-9.46ZM137.9092,57.2002l-6.1602,20.8999h13.5303L168.0493,1.54h-13.6401l-12.8701,44.2202h-5.7202L124.3789,1.54h-13.5298l14.8501,55.6602h12.21ZM187.7383,12.98h25.6299v44.2202h13.0903V1.54h-51.8101v55.6602h13.0898V12.98ZM291.4673,57.2002V1.54h-51.8101v55.6602h13.0898V12.98h25.6299v44.2202h13.0903ZM314.6758,54.9453c3.96,2.4561,8.3223,3.6851,13.0903,3.6851,3.2998,0,6.1958-.5332,8.6899-1.5952,2.4922-1.062,4.5459-2.3101,6.1597-3.7397,1.6123-1.4302,2.7861-2.6953,3.52-3.7954h.4399v7.7002h12.9805V1.54h-12.9805v7.7002h-.4399c-.7339-1.1001-1.9077-2.3823-3.52-3.8501-1.6138-1.4658-3.6675-2.731-6.1597-3.7949-2.4941-1.062-5.3901-1.5952-8.6899-1.5952-4.7681,0-9.1304,1.248-13.0903,3.7402-3.96,2.4937-7.0947,5.959-9.4048,10.395-2.3101,4.438-3.4648,9.5151-3.4648,15.2349,0,5.6479,1.1548,10.708,3.4648,15.1802,2.3101,4.4736,5.4448,7.939,9.4048,10.395ZM317.2607,19.9102c1.3564-2.7119,3.2075-4.8022,5.5552-6.27,2.3462-1.4658,4.9502-2.1997,7.8101-2.1997,3.0801,0,5.811.7339,8.1948,2.1997,2.3823,1.4678,4.271,3.5581,5.665,6.27,1.3921,2.7139,2.0898,5.8677,2.0898,9.46s-.6978,6.729-2.0898,9.4053c-1.394,2.6777-3.2827,4.7485-5.665,6.2148-2.3838,1.4678-5.1147,2.2002-8.1948,2.2002-2.8599,0-5.4639-.7324-7.8101-2.2002-2.3477-1.4663-4.1987-3.5371-5.5552-6.2148-1.3574-2.6763-2.0347-5.8115-2.0347-9.4053s.6772-6.7461,2.0347-9.46ZM89.585,104.375c-8.0454-4.1143-17.3228-6.1748-27.835-6.1748H0v133h28.5v-39.9004h33.25c10.5122,0,19.7896-2.0566,27.835-6.1748,8.0425-4.1143,14.2798-9.7197,18.7148-16.8145,4.4326-7.0928,6.6499-14.9453,6.6499-23.5605s-2.2173-16.4648-6.6499-23.5596c-4.4351-7.0928-10.6724-12.6978-18.7148-16.8154ZM79.04,159.1904c-4.3076,3.6748-10.3877,5.5098-18.2402,5.5098H28.5v-39.9004h32.2998c7.8525,0,13.9326,1.8379,18.2402,5.5107,4.3047,3.6748,6.46,8.4873,6.46,14.4395s-2.1553,10.7676-6.46,14.4404ZM233.8892,103.8052c-11.1475-6.27-23.5601-9.4048-37.2402-9.4048s-26.0952,3.1348-37.2397,9.4048c-11.1479,6.27-19.9204,14.7905-26.3149,25.5552-6.3979,10.7676-9.5952,22.5479-9.5952,35.3398s3.1973,24.5752,9.5952,35.3398c6.3945,10.7676,15.167,19.2852,26.3149,25.5547,11.1445,6.2705,23.5601,9.4053,37.2397,9.4053s26.0928-3.1348,37.2402-9.4053c11.1445-6.2695,19.9175-14.7871,26.3149-25.5547,6.3945-10.7646,9.5952-22.5449,9.5952-35.3398s-3.2007-24.5723-9.5952-35.3398c-6.3975-10.7646-15.1704-19.2852-26.3149-25.5552ZM233.8892,187.3105c-3.6753,6.5869-8.7725,11.75-15.2949,15.4844-6.5254,3.7383-13.8403,5.6055-21.9453,5.6055s-15.4224-1.8672-21.9448-5.6055c-6.5254-3.7344-11.6226-8.8975-15.2949-15.4844-3.6753-6.585-5.5103-14.123-5.5103-22.6104s1.835-16.0225,5.5103-22.6104c3.6724-6.584,8.7695-11.7471,15.2949-15.4844,6.5225-3.7354,13.8374-5.6055,21.9448-5.6055s15.4199,1.8701,21.9453,5.6055c6.5225,3.7373,11.6196,8.9004,15.2949,15.4844,3.6724,6.5879,5.5098,14.126,5.5098,22.6104s-1.8374,16.0254-5.5098,22.6104ZM377.7183,200.7051c-6.5874,5.1299-15.0098,7.6953-25.27,7.6953-8.4873,0-15.96-1.8057-22.4199-5.415-6.46-3.6104-11.4653-8.707-15.0098-15.2949-3.5479-6.585-5.3203-14.25-5.3203-22.9902,0-8.4844,1.835-16.0225,5.5103-22.6104,3.6724-6.584,8.7695-11.7471,15.2949-15.4844,6.5225-3.7354,13.8374-5.6055,21.9448-5.6055,10.0049,0,18.2075,2.3125,24.605,6.9355,6.395,4.625,10.8599,10.2295,13.395,16.8145h29.4502c-2.4077-8.8643-6.3975-17.0996-11.9702-24.7002-5.5752-7.5996-13.0146-13.7744-22.3247-18.5244s-20.3628-7.125-33.1553-7.125c-14.0596,0-26.6323,3.0723-37.7149,9.2148-11.0854,6.1455-19.7597,14.5674-26.0298,25.2695-6.27,10.7061-9.4053,22.6436-9.4053,35.8154s3.1353,25.1123,9.4053,35.8154c6.27,10.7051,14.9443,19.127,26.0298,25.2695,11.0825,6.1426,23.6553,9.2148,37.7149,9.2148,12.54,0,23.4951-2.5029,32.8701-7.5049,9.3726-5.002,16.9727-11.5244,22.8003-19.5703,5.8247-8.042,10.0698-16.749,12.73-26.125h-29.4502c-2.5352,7.4756-7.0952,13.7754-13.6802,18.9053ZM522.498,150.4502h-58.8999v-52.25h-28.5v133h28.5v-54.1504h58.8999v54.1504h28.5V98.2002h-28.5v52.25ZM595.6465,98.2002l-35.1499,133h29.4497l7.6001-29.4502h56.0498l7.6001,29.4502h29.4502l-35.1499-133h-59.8501ZM604.1963,175.1504l13.3003-50.3506h16.1499l13.2998,50.3506h-42.75ZM787.5449,150.4502h-58.8999v-52.25h-28.5v133h28.5v-54.1504h58.8999v54.1504h28.5V98.2002h-28.5v52.25ZM967.9478,129.3604c-6.3975-10.7646-15.1704-19.2852-26.3149-25.5552-11.1475-6.27-23.5601-9.4048-37.2402-9.4048s-26.0952,3.1348-37.2397,9.4048c-11.1479,6.27-19.9204,14.7905-26.3149,25.5552-6.3979,10.7676-9.5952,22.5479-9.5952,35.3398s3.1973,24.5752,9.5952,35.3398c6.3945,10.7676,15.167,19.2852,26.3149,25.5547,11.1445,6.2705,23.5601,9.4053,37.2397,9.4053s26.0928-3.1348,37.2402-9.4053c11.1445-6.2695,19.9175-14.7871,26.3149-25.5547,6.3945-10.7646,9.5952-22.5449,9.5952-35.3398s-3.2007-24.5723-9.5952-35.3398ZM941.6328,187.3105c-3.6753,6.5869-8.7725,11.75-15.2949,15.4844-6.5254,3.7383-13.8403,5.6055-21.9453,5.6055s-15.4224-1.8672-21.9448-5.6055c-6.5254-3.7344-11.6226-8.8975-15.2949-15.4844-3.6753-6.585-5.5103-14.123-5.5103-22.6104s1.835-16.0225,5.5103-22.6104c3.6724-6.584,8.7695-11.7471,15.2949-15.4844,6.5225-3.7354,13.8374-5.6055,21.9448-5.6055s15.4199,1.8701,21.9453,5.6055c6.5225,3.7373,11.6196,8.9004,15.2949,15.4844,3.6724,6.5879,5.5098,14.126,5.5098,22.6104s-1.8374,16.0254-5.5098,22.6104Z"/>
</svg>